# xmcd
#
# Track frame offsets:
#	150
#	23380
#	49300
#	69245
#	84982
#	103567
#	125920
#	144167
#	165440
#	183012
#	200337
#	230475
#	254232
#	280302
#	300750
#	317910
#
# Disc length: 4484 seconds
#
# Revision: 3
# Processed by: cddbd v1.4PL0 Copyright (c) Steve Scherf et al.
# Submitted via: CDmax 1.8
#
DISCID=d0118210
DTITLE=Elton John - Ballads
DYEAR=1900
DGENRE=
TTITLE0=Sacrifice
TTITLE1=Nikita
TTITLE2=Easier To Walk Away
TTITLE3=Blue Eyes
TTITLE4=Sad Song
TTITLE5=You Gotta Love Someone
TTITLE6=Your Song
TTITLE7=Rocket Man
TTITLE8=Daniel
TTITLE9=Sorry Seems To Be The Hardest Way
TTITLE10=Song For Guy
TTITLE11=Little Jeannie
TTITLE12=Too Low For Zero
TTITLE13=The One
TTITLE14=Candle In The Wind
TTITLE15=Whispers
EXTD=
EXTT0=
EXTT1=
EXTT2=
EXTT3=
EXTT4=
EXTT5=
EXTT6=
EXTT7=
EXTT8=
EXTT9=
EXTT10=
EXTT11=
EXTT12=
EXTT13=
EXTT14=
EXTT15=
PLAYORDER=
